# xmcd
#
# Track frame offsets:
#	150
#	17031
#	32809
#	46780
#	67331
#	81462
#	99070
#	113942
#	134374
#
# Disc length: 2024 seconds
#
# Revision: 0
# Processed by: cddbd v1.5.2PL0 Copyright (c) Steve Scherf et al.
# Submitted via: audiograbber 1.83.01
#
DISCID=7507e609
DTITLE=Red Blue Elephant - Can't Lose With The Tools He Use
DYEAR=2012
DGENRE=Blues
TTITLE0=Funky Fish
TTITLE1=Drunk Animals
TTITLE2=Catch The Groove
TTITLE3=Green
TTITLE4=End Up
TTITLE5=Zweitonlied
TTITLE6=Very High Tower
TTITLE7=Queue For Fly
TTITLE8=He The Man
EXTD=
EXTT0=
EXTT1=
EXTT2=
EXTT3=
EXTT4=
EXTT5=
EXTT6=
EXTT7=
EXTT8=
PLAYORDER=
